<?xml version="1.0" encoding="utf-8"?>
<!-- Generator: Adobe Illustrator 25.2.1, SVG Export Plug-In . SVG Version: 6.00 Build 0)  -->
<svg version="1.1" id="Layer_1" xmlns="http://www.w3.org/2000/svg" xmlns:xlink="http://www.w3.org/1999/xlink" x="0px" y="0px"
	 viewBox="0 0 32 40" style="enable-background:new 0 0 32 40;" xml:space="preserve">
<path d="M21.5,9.1l-10-5c-0.3-0.2-0.7-0.2-1,0c0,0-0.1,0.1-0.1,0.1c-0.2,0.1-0.3,0.3-0.3,0.5c0,0.1,0,0.2,0,0.3v10v12
	c0,0.6,0.4,1,1,1s1-0.4,1-1V15.6l9.4-4.7c0.4-0.2,0.6-0.5,0.6-0.9S21.8,9.3,21.5,9.1z"/>
<text transform="matrix(1 0 0 1 0 47)" style="font-family:'HelveticaNeue-Bold'; font-size:5px;">Created by RomStu</text>
<text transform="matrix(1 0 0 1 0 52)" style="font-family:'HelveticaNeue-Bold'; font-size:5px;">from the Noun Project</text>
</svg>
