<?xml version="1.0" encoding="utf-8"?>
<!-- Generator: Adobe Illustrator 25.2.1, SVG Export Plug-In . SVG Version: 6.00 Build 0)  -->
<svg version="1.1" id="Layer_1" xmlns="http://www.w3.org/2000/svg" xmlns:xlink="http://www.w3.org/1999/xlink" x="0px" y="0px"
	 viewBox="0 0 100 125" style="enable-background:new 0 0 100 125;" xml:space="preserve">
<style type="text/css">
	.st0{font-family:'HelveticaNeue-Bold';}
	.st1{font-size:5px;}
</style>
<g>
	<path d="M48.5,18.3c2.1,1.4,2.5,4.2,2.5,4.2l5.2-8c1.3-2,0.8-4.7-1.3-6.1c-2-1.3-4.7-0.8-6.1,1.3l-4,6.1
		C44.8,15.9,47,17.3,48.5,18.3z"/>
	<path d="M71.9,19.6c-2-1.3-4.7-0.8-6.1,1.3l-7.2,11l0,0c-1.3,2-0.8,4.7,1.3,6.1c2,1.3,4.7,0.8,6.1-1.3l0,0l7.2-11
		C74.5,23.6,73.9,20.9,71.9,19.6z"/>
	<path d="M50.1,26.3c-1.3,2-0.8,4.7,1.3,6.1c2,1.3,4.7,0.8,6.1-1.3l0,0l0,0l7.2-11l0,0c1.3-2,0.8-4.7-1.3-6.1
		c-2-1.3-4.7-0.8-6.1,1.3L50.1,26.3L50.1,26.3z"/>
	<path d="M40.6,13.1l3.1,2.1l4-6.1c1.3-2,0.8-4.7-1.3-6.1c-2-1.3-4.7-0.8-6.1,1.3L38,7.7l-3.1,4.6C35.5,11.5,38.4,11.7,40.6,13.1z"
		/>
	<path d="M38.2,76.5h26.1V48H38.2V76.5z"/>
	<path d="M66.9,37.6c-0.1,0.2-0.2,0.3-0.3,0.4c-1.9,2.2-5.1,2.7-7.6,1.1c-1.8-1.2-2.7-3.2-2.6-5.2c-1.8,0.9-4.1,0.9-5.9-0.3
		c-0.5-0.3-1-0.8-1.3-1.2c-0.8-1.4-1.1-3.1-0.7-4.8l0,0l0,0l0,0l0,0c-2.1,1.1-4.6,1.1-6.7-0.3c0,0,0,0-0.1-0.1l-4-2.6l0,0l0,0l0,0
		c-0.1-0.1-0.2-0.2-0.2-0.4c0-0.3,0.2-0.5,0.5-0.5c0.1,0,0.2,0,0.2,0.1l0,0l0,0l0,0c0.8,0.5,4.6,3,4.6,3l0,0c1.9,1.3,4.5,0.8,5.9-1
		c0.1-0.2,0.2-0.3,0.3-0.5c1.1-2,0.6-4.6-1.4-5.8l0,0l0,0L39,13.8l0,0c-2-1.1-4.5-0.6-5.8,1.4l0,0l-6.3,9.6l0,0
		c-1,1.6-0.9,3.5,0.1,4.9l11.2,17.8v7h13.2h1.5h11.4v-7.7c0,0,3.8-4.1,4.6-5.3c0.6-1,1-2.2,1-3.3V33L66.9,37.6L66.9,37.6z"/>
</g>
<text transform="matrix(1 0 0 1 0 115)" class="st0 st1">Created by matias porta lezcano</text>
<text transform="matrix(1 0 0 1 0 120)" class="st0 st1">from the Noun Project</text>
</svg>
