<?xml version="1.0" encoding="utf-8"?>
<!-- Generator: Adobe Illustrator 25.2.1, SVG Export Plug-In . SVG Version: 6.00 Build 0)  -->
<svg version="1.1"
	 id="Layer_1" xmlns:cc="http://creativecommons.org/ns#" xmlns:dc="http://purl.org/dc/elements/1.1/" xmlns:inkscape="http://www.inkscape.org/namespaces/inkscape" xmlns:rdf="http://www.w3.org/1999/02/22-rdf-syntax-ns#" xmlns:sodipodi="http://sodipodi.sourceforge.net/DTD/sodipodi-0.dtd" xmlns:svg="http://www.w3.org/2000/svg"
	 xmlns="http://www.w3.org/2000/svg" xmlns:xlink="http://www.w3.org/1999/xlink" x="0px" y="0px" viewBox="0 0 100 125"
	 style="enable-background:new 0 0 100 125;" xml:space="preserve">
<style type="text/css">
	.st0{fill-rule:evenodd;clip-rule:evenodd;}
	.st1{font-family:'HelveticaNeue-Bold';}
	.st2{font-size:5px;}
</style>
<g transform="translate(0,-952.36218)">
	<path class="st0" d="M49.9,958.4c-0.8,0-1.5,0.6-1.8,1.4l-10,30.1H5.9c-1.1,0-2,0.9-2,2c0,0.6,0.3,1.2,0.8,1.6l26.1,19.1l-10,31.2
		c-0.3,1.1,0.2,2.2,1.3,2.5c0.6,0.2,1.3,0.1,1.8-0.3l26.1-19.1l26.1,19.1c0.9,0.7,2.1,0.5,2.8-0.4c0.4-0.5,0.5-1.2,0.3-1.8l-10-31.2
		l26.1-19.1c0.9-0.7,1.1-1.9,0.4-2.8c-0.4-0.5-1-0.8-1.6-0.8H61.9l-10-30.1C51.6,958.9,50.8,958.3,49.9,958.4z"/>
</g>
<text transform="matrix(1 0 0 1 0 115)" class="st1 st2">Created by AliWijaya</text>
<text transform="matrix(1 0 0 1 0 120)" class="st1 st2">from the Noun Project</text>
</svg>
