<?xml version="1.0" encoding="utf-8"?>
<!-- Generator: Adobe Illustrator 25.2.1, SVG Export Plug-In . SVG Version: 6.00 Build 0)  -->
<svg version="1.1" id="Layer_1" xmlns="http://www.w3.org/2000/svg" xmlns:xlink="http://www.w3.org/1999/xlink" x="0px" y="0px"
	 viewBox="0 0 90 112.5" style="enable-background:new 0 0 90 112.5;" xml:space="preserve">
<style type="text/css">
	.st0{font-family:'HelveticaNeue-Bold';}
	.st1{font-size:5px;}
</style>
<path d="M45,65.9c-9,0-16.4-9-16.4-20.2V40c0-1.9,1.2-3.4,2.8-3.4h27.2c1.5,0,2.8,1.5,2.8,3.4v5.7C61.4,56.9,54,65.9,45,65.9z"/>
<path d="M49.6,70.3h-9.3v-5.9l1.7,0.3c2.2,0.3,3.7,0.3,5.9,0l1.7-0.3C49.6,64.4,49.6,70.3,49.6,70.3z"/>
<g>
	<path d="M52.7,20.7c-1.5,0-2.8,1.4-2.8,3.2v13.7h5.6V23.9C55.5,22.2,54.2,20.7,52.7,20.7z"/>
	<path d="M37.2,20.7c-1.5,0-2.8,1.4-2.8,3.2v13.7H40V23.9C40,22.2,38.7,20.7,37.2,20.7z"/>
</g>
<text transform="matrix(1 0 0 1 0 105)" class="st0 st1">Created by Yoteyo</text>
<text transform="matrix(1 0 0 1 0 110)" class="st0 st1">from the Noun Project</text>
<path d="M119.6,44.2h-1.2V31.5c0-1.7-1.3-3.2-2.8-3.2s-2.8,1.4-2.8,3.2v12.7H92.9V31.5c0-1.7-1.3-3.2-2.8-3.2s-2.8,1.4-2.8,3.2v12.7
	h-1.2c-1.9,0-3.4,1.5-3.4,3.4v5.7c0,9.6,6.6,17.5,15.5,19.6v5h9.3c0,0,0-3.6,0-4.9c8.9-2.1,15.6-10,15.5-19.7v-5.7
	C123,45.7,121.5,44.2,119.6,44.2z"/>
</svg>
