<svg xmlns="http://www.w3.org/2000/svg" xmlns:xlink="http://www.w3.org/1999/xlink" xml:space="preserve" version="1.1" style="shape-rendering:geometricPrecision;text-rendering:geometricPrecision;image-rendering:optimizeQuality;" viewBox="0 0 333 416.25" x="0px" y="0px" fill-rule="evenodd" clip-rule="evenodd"><defs><style type="text/css">
   
    .fil0 {fill:black}
   
  </style></defs><g><path class="fil0" d="M73 0l188 0c40,0 72,33 72,73l0 188c0,40 -32,72 -72,72l-188 0c-40,0 -73,-32 -73,-72l0 -188c0,-40 33,-73 73,-73zm109 76l0 115c0,23 -30,23 -30,0l0 -115c0,-22 30,-22 30,0zm-81 20c6,-9 -5,-20 -14,-13 -22,22 -32,50 -32,79 0,62 50,112 112,112 62,0 112,-50 112,-112 0,-29 -11,-57 -33,-79 -7,-6 -23,3 -11,16 16,18 25,40 25,64 -2,121 -185,120 -186,0 -1,-25 9,-48 27,-67z"/></g><text x="0" y="348" fill="#000000" font-size="5px" font-weight="bold" font-family="'Helvetica Neue', Helvetica, Arial-Unicode, Arial, Sans-serif">Created by Susannanova</text><text x="0" y="353" fill="#000000" font-size="5px" font-weight="bold" font-family="'Helvetica Neue', Helvetica, Arial-Unicode, Arial, Sans-serif">from the Noun Project</text></svg>