<?xml version="1.0" encoding="utf-8"?>
<!-- Generator: Adobe Illustrator 25.2.1, SVG Export Plug-In . SVG Version: 6.00 Build 0)  -->
<svg version="1.1" id="Layer_1" xmlns="http://www.w3.org/2000/svg" xmlns:xlink="http://www.w3.org/1999/xlink" x="0px" y="0px"
	 viewBox="0 0 100 125" style="enable-background:new 0 0 100 125;" xml:space="preserve">
<style type="text/css">
	.st0{fill-rule:evenodd;clip-rule:evenodd;}
	.st1{font-family:'HelveticaNeue-Bold';}
	.st2{font-size:5px;}
</style>
<g>
	<polygon class="st0" points="46.7,85.7 50,91.5 53.3,85.7 53.3,46 46.7,46 	"/>
	<path class="st0" d="M23.2,6.5v39.8h53.7V6.5H23.2z M45.8,13.7c0-0.8,0.7-1.5,1.5-1.5h5.4c0.8,0,1.5,0.7,1.5,1.5v0.3
		c0,0.8-0.1,2.2-0.2,3l-1.8,12.1c-0.1,0.8-0.9,1.5-1.7,1.5h-0.9c-0.8,0-1.6-0.7-1.7-1.5L46,17c-0.1-0.8-0.2-2.1-0.2-3L45.8,13.7
		L45.8,13.7z M50,40.6c-2.3,0-4.2-1.9-4.2-4.2c0-2.3,1.9-4.2,4.2-4.2c2.3,0,4.2,1.9,4.2,4.2C54.2,38.7,52.3,40.6,50,40.6z"/>
</g>
<text transform="matrix(1 0 0 1 0 115)" class="st1 st2">Created by Dillon Arloff</text>
<text transform="matrix(1 0 0 1 0 120)" class="st1 st2">from the Noun Project</text>
</svg>
