<?xml version="1.0" encoding="utf-8"?>
<!-- Generator: Adobe Illustrator 25.2.1, SVG Export Plug-In . SVG Version: 6.00 Build 0)  -->
<svg version="1.1" id="Layer_1" xmlns="http://www.w3.org/2000/svg" xmlns:xlink="http://www.w3.org/1999/xlink" x="0px" y="0px"
	 viewBox="0 0 400 700" style="enable-background:new 0 0 400 700;" xml:space="preserve">
<style type="text/css">
	.st0{clip-path:url(#SVGID_2_);}
</style>
<text transform="matrix(1 0 0 1 33.8249 726.5156)" style="font-family:'HelveticaNeue-Bold'; font-size:25.5939px;">Created by RomStu</text>
<text transform="matrix(1 0 0 1 33.8249 752.1094)" style="font-family:'HelveticaNeue-Bold'; font-size:25.5939px;">from the Noun Project</text>
<path d="M777.5,658.2V192.2c0-12.7,7.4-21.2,18.5-21.2c11.1,0,18.5,8.5,18.5,21.2v465.9H777.5z"/>
<path d="M1009,273.4L807.7,172.8c-6-4-14.1-4-20.1,0c-6,4-10.1,12.1-10.1,18.1v201.3c0,6,4,14.1,10.1,18.1c2,0,6,2,10.1,2s6,0,8.1-2
	L1007,309.6c8.1-4,12.1-10.1,12.1-18.1S1015,277.4,1009,273.4z"/>
<g>
	<defs>
		<rect id="SVGID_1_" x="34.2" y="94.2" width="331.6" height="442.1"/>
	</defs>
	<clipPath id="SVGID_2_">
		<use xlink:href="#SVGID_1_"  style="overflow:visible;"/>
	</clipPath>
	<g class="st0">
		<path d="M89.9,877.4c-13.7,0-22.9-13-22.9-32.6V128.2c0-19.5,9.2-32.6,22.9-32.6s22.9,13,22.9,32.6v716.6
			C112.8,864.4,103.7,877.4,89.9,877.4z"/>
		<path d="M353.3,222.2l-249-124.5c-7.5-5-17.4-5-24.9,0c-7.5,5-12.4,14.9-12.4,22.4v249c0,7.5,5,17.4,12.4,22.4
			c2.5,0,7.5,2.5,12.4,2.5s7.5,0,10-2.5l249-124.5c10-5,14.9-12.4,14.9-22.4S360.8,227.2,353.3,222.2z"/>
	</g>
</g>
</svg>
