<?xml version="1.0" encoding="utf-8"?>
<!-- Generator: Adobe Illustrator 25.2.1, SVG Export Plug-In . SVG Version: 6.00 Build 0)  -->
<svg version="1.1" id="Layer_1" xmlns="http://www.w3.org/2000/svg" xmlns:xlink="http://www.w3.org/1999/xlink" x="0px" y="0px"
	 viewBox="0 0 512 640" style="enable-background:new 0 0 512 640;" xml:space="preserve">
<style type="text/css">
	.st0{font-family:'HelveticaNeue-Bold';}
	.st1{font-size:5px;}
</style>
<g>
	<rect x="190" y="190" width="132" height="132"/>
	<path d="M336,150H176c-14.4,0-26,11.6-26,26v160c0,14.4,11.6,26,26,26h160c14.4,0,26-11.6,26-26V176C362,161.6,350.4,150,336,150z
		 M334,328c0,3.3-2.7,6-6,6H184c-3.3,0-6-2.7-6-6V184c0-3.3,2.7-6,6-6h144c3.3,0,6,2.7,6,6V328z"/>
	<path d="M178,134c-0.1,3.2,2.4,5.9,5.6,6c0.1,0,0.1,0,0.2,0h30c3.4,0,6.1-2.6,6.2-6V84c-0.1-3.4-2.9-6-6.2-6H213V54
		c-0.1-3.4-2.9-6-6.2-6H205V32c0-3.3-2.7-6-6-6s-6,2.7-6,6v16h-2.2c-3.2,0-5.8,2.6-5.8,5.8c0,0.1,0,0.1,0,0.2v24h-1.2
		c-3.2,0-5.8,2.6-5.8,5.8c0,0.1,0,0.1,0,0.2V134z"/>
	<path d="M298.2,140h30c3.2,0,5.8-2.6,5.8-5.8c0-0.1,0-0.1,0-0.2V84c0.1-3.2-2.4-5.9-5.6-6c-0.1,0-0.1,0-0.2,0H327V54
		c0.1-3.2-2.4-5.9-5.6-6c-0.1,0-0.1,0-0.2,0H319V32c0-3.3-2.7-6-6-6s-6,2.7-6,6v16h-1.8c-3.4,0-6.1,2.6-6.2,6v24h-0.8
		c-3.4,0-6.1,2.6-6.2,6v50C292.1,137.4,294.9,140,298.2,140z"/>
	<path d="M241,140h30c3.3,0,6-2.7,6-6V84c0-3.3-2.7-6-6-6h-1V54c0-3.3-2.7-6-6-6h-2V32c0-3.3-2.7-6-6-6s-6,2.7-6,6v16h-2
		c-3.3,0-6,2.7-6,6v24h-1c-3.3,0-6,2.7-6,6v50C235,137.3,237.7,140,241,140z"/>
	<path d="M334,378c0.1-3.2-2.4-5.9-5.6-6c-0.1,0-0.1,0-0.2,0h-30c-3.4,0-6.1,2.6-6.2,6v50c0.1,3.4,2.9,6,6.2,6h0.8v24
		c0.1,3.4,2.9,6,6.2,6h1.8v16c0,3.3,2.7,6,6,6s6-2.7,6-6v-16h2.2c3.2,0,5.8-2.6,5.8-5.8c0-0.1,0-0.1,0-0.2v-24h1.2
		c3.2,0,5.8-2.6,5.8-5.8c0-0.1,0-0.1,0-0.2L334,378L334,378z"/>
	<path d="M213.8,372h-30c-3.2,0-5.8,2.6-5.8,5.8c0,0.1,0,0.1,0,0.2v50c-0.1,3.2,2.4,5.9,5.6,6c0.1,0,0.1,0,0.2,0h1.2v24
		c-0.1,3.2,2.4,5.9,5.6,6c0.1,0,0.1,0,0.2,0h2.2v16c0,3.3,2.7,6,6,6s6-2.7,6-6v-16h1.8c3.4,0,6.1-2.6,6.2-6v-24h0.8
		c3.4,0,6.1-2.6,6.2-6v-50C219.9,374.6,217.1,372,213.8,372z"/>
	<path d="M271,372h-30c-3.3,0-6,2.7-6,6v50c0,3.3,2.7,6,6,6h1v24c0,3.3,2.7,6,6,6h2v16c0,3.3,2.7,6,6,6c3.3,0,6-2.7,6-6v-16h2
		c3.3,0,6-2.7,6-6v-24h1c3.3,0,6-2.7,6-6v-50C277,374.7,274.3,372,271,372z"/>
	<path d="M378,220h50c3.4-0.1,6-2.9,6-6.2V213h24c3.4-0.1,6-2.9,6-6.2V205h16c3.3,0,6-2.7,6-6s-2.7-6-6-6h-16v-2.2
		c0-3.2-2.6-5.8-5.8-5.8c-0.1,0-0.1,0-0.2,0h-24v-1.2c0-3.2-2.6-5.8-5.8-5.8c-0.1,0-0.1,0-0.2,0h-50c-3.2-0.1-5.9,2.4-6,5.6
		c0,0.1,0,0.1,0,0.2v30C372,217.1,374.6,219.9,378,220z"/>
	<path d="M480,307h-16v-1.8c0-3.4-2.6-6.1-6-6.2h-24v-0.8c0-3.4-2.6-6.1-6-6.2h-50c-3.4,0.1-6,2.9-6,6.2v30c0,3.2,2.6,5.8,5.8,5.8
		c0.1,0,0.1,0,0.2,0h50c3.2,0.1,5.9-2.4,6-5.6c0-0.1,0-0.1,0-0.2V327h24c3.2,0.1,5.9-2.4,6-5.6c0-0.1,0-0.1,0-0.2V319h16
		c3.3,0,6-2.7,6-6S483.3,307,480,307z"/>
	<path d="M480,250h-16v-2c0-3.3-2.7-6-6-6h-24v-1c0-3.3-2.7-6-6-6h-50c-3.3,0-6,2.7-6,6v30c0,3.3,2.7,6,6,6h50c3.3,0,6-2.7,6-6v-1
		h24c3.3,0,6-2.7,6-6v-2h16c3.3,0,6-2.7,6-6S483.3,250,480,250z"/>
	<path d="M134,292H84c-3.4,0.1-6,2.9-6,6.2v0.8H54c-3.4,0.1-6,2.9-6,6.2v1.8H32c-3.3,0-6,2.7-6,6s2.7,6,6,6h16v2.2
		c0,3.2,2.6,5.8,5.8,5.8c0.1,0,0.1,0,0.2,0h24v1.2c0,3.2,2.6,5.8,5.8,5.8c0.1,0,0.1,0,0.2,0h50c3.2,0.1,5.9-2.4,6-5.6
		c0-0.1,0-0.1,0-0.2v-30C140,294.9,137.4,292.1,134,292z"/>
	<path d="M134.2,178c-0.1,0-0.1,0-0.2,0H84c-3.2-0.1-5.9,2.4-6,5.6c0,0.1,0,0.1,0,0.2v1.2H54c-3.2-0.1-5.9,2.4-6,5.6
		c0,0.1,0,0.1,0,0.2v2.2H32c-3.3,0-6,2.7-6,6s2.7,6,6,6h16v1.8c0,3.4,2.6,6.1,6,6.2h24v0.8c0,3.4,2.6,6.1,6,6.2h50
		c3.4-0.1,6-2.9,6-6.2v-30C140,180.6,137.4,178,134.2,178z"/>
	<path d="M134,235H84c-3.3,0-6,2.7-6,6v1H54c-3.3,0-6,2.7-6,6v2H32c-3.3,0-6,2.7-6,6c0,3.3,2.7,6,6,6h16v2c0,3.3,2.7,6,6,6h24v1
		c0,3.3,2.7,6,6,6h50c3.3,0,6-2.7,6-6v-30C140,237.7,137.3,235,134,235z"/>
</g>
<text transform="matrix(1 0 0 1 0 527)" class="st0 st1">Created by Icongeek26</text>
<text transform="matrix(1 0 0 1 0 532)" class="st0 st1">from the Noun Project</text>
</svg>
